<svg xmlns="http://www.w3.org/2000/svg" viewBox="0 0 102.6 103.73"><path d="M17.86,59.52H0A51.56,51.56,0,0,0,3.93,73H24.31A34.11,34.11,0,0,1,17.86,59.52Z" style="fill:#00aeef"/><path d="M24.31,30.71H3.93A51.52,51.52,0,0,0,0,44.21H17.86A34.16,34.16,0,0,1,24.31,30.71Z" style="fill:#00aeef"/><circle cx="51.3" cy="51.86" r="16.74" transform="translate(-8.11 94.19) rotate(-80.78)" style="fill:#00aeef"/><path d="M84.74,59.52A34.36,34.36,0,0,1,51.3,86.18H12.41A51.86,51.86,0,0,0,102.6,59.52Z" style="fill:#00aeef"/><path d="M51.3,17.55A34.35,34.35,0,0,1,84.74,44.21H102.6A51.87,51.87,0,0,0,12.41,17.55H51.3Z" style="fill:#00aeef"/></svg>